<svg xmlns="http://www.w3.org/2000/svg" width="48" height="49" viewBox="0 0 48 49" fill="none">
<mask id="mask0_3049_5166" style="mask-type:alpha" maskUnits="userSpaceOnUse" x="0" y="0" width="48" height="49">
<rect y="0.5" width="48" height="48" fill="#D9D9D9"/>
</mask>
<g mask="url(#mask0_3049_5166)">
<circle cx="25" cy="25" r="10" fill="white" />
<path d="M21.15 28.8L16.45 24.1C16.1833 23.8333 15.85 23.7 15.45 23.7C15.05 23.7 14.7 23.85 14.4 24.15C14.1 24.45 13.95 24.8 13.95 25.2C13.95 25.6 14.1 25.95 14.4 26.25L19.9 31.75C20.2333 32.0833 20.65 32.25 21.15 32.25C21.65 32.25 22.0833 32.0833 22.45 31.75L33.6 20.55C33.8667 20.2833 34 19.95 34 19.55C34 19.15 33.85 18.8 33.55 18.5C33.25 18.2 32.9 18.05 32.5 18.05C32.1 18.05 31.75 18.2 31.45 18.5L21.15 28.8ZM24 43.5C21.3667 43.5 18.892 43 16.576 42C14.2587 41 12.25 39.65 10.55 37.95C8.85 36.25 7.5 34.2413 6.5 31.924C5.5 29.608 5 27.1333 5 24.5C5 21.8667 5.5 19.3913 6.5 17.074C7.5 14.758 8.85 12.75 10.55 11.05C12.25 9.35 14.2587 8 16.576 7C18.892 6 21.3667 5.5 24 5.5C26.6333 5.5 29.1087 6 31.426 7C33.742 8 35.75 9.35 37.45 11.05C39.15 12.75 40.5 14.758 41.5 17.074C42.5 19.3913 43 21.8667 43 24.5C43 27.1333 42.5 29.608 41.5 31.924C40.5 34.2413 39.15 36.25 37.45 37.95C35.75 39.65 33.742 41 31.426 42C29.1087 43 26.6333 43.5 24 43.5Z" fill="#3F7E48"/>
</g>
</svg>
