<svg xmlns="http://www.w3.org/2000/svg" width="14" height="13" viewBox="0 0 14 13" fill="none">
<path d="M7.00002 7.5499L1.92502 12.6249C1.79169 12.7582 1.62102 12.8289 1.41302 12.8369C1.20436 12.8456 1.02502 12.7749 0.875024 12.6249C0.725024 12.4749 0.650024 12.2999 0.650024 12.0999C0.650024 11.8999 0.725024 11.7249 0.875024 11.5749L5.95002 6.4999L0.875024 1.4249C0.741691 1.29157 0.671024 1.12057 0.663024 0.911902C0.654358 0.703902 0.725024 0.524902 0.875024 0.374902C1.02502 0.224902 1.20002 0.149902 1.40002 0.149902C1.60002 0.149902 1.77502 0.224902 1.92502 0.374902L7.00002 5.4499L12.075 0.374902C12.2084 0.241569 12.3794 0.170569 12.588 0.161902C12.796 0.153902 12.975 0.224902 13.125 0.374902C13.275 0.524902 13.35 0.699902 13.35 0.899902C13.35 1.0999 13.275 1.2749 13.125 1.4249L8.05002 6.4999L13.125 11.5749C13.2584 11.7082 13.329 11.8789 13.337 12.0869C13.3457 12.2956 13.275 12.4749 13.125 12.6249C12.975 12.7749 12.8 12.8499 12.6 12.8499C12.4 12.8499 12.225 12.7749 12.075 12.6249L7.00002 7.5499Z" fill="#1C1B1F"/>
</svg>
