<svg xmlns="http://www.w3.org/2000/svg" width="12" height="13" viewBox="0 0 12 13" fill="none">
<path d="M10.7143 0.382812H1.28571C0.5625 0.382812 0 0.972098 0 1.66853V11.0971C0 11.8203 0.5625 12.3828 1.28571 12.3828H4.95536V8.31138H3.26786V6.38281H4.95536V4.93638C4.95536 3.27567 5.94643 2.33817 7.44643 2.33817C8.19643 2.33817 8.94643 2.4721 8.94643 2.4721V4.10603H8.11607C7.28571 4.10603 7.01786 4.61496 7.01786 5.15067V6.38281H8.86607L8.57143 8.31138H7.01786V12.3828H10.7143C11.4107 12.3828 12 11.8203 12 11.0971V1.66853C12 0.972098 11.4107 0.382812 10.7143 0.382812Z" fill="white"/>
</svg>
