<svg xmlns="http://www.w3.org/2000/svg" width="24" height="24" viewBox="0 0 24 24" fill="none">
<path fill-rule="evenodd" clip-rule="evenodd" d="M21.3563 2.53248C22.6761 3.85229 23.0822 5.47667 23.1838 7.3041C23.2853 9.18229 23.2853 14.8169 23.1838 16.6951C23.0822 18.5225 22.6761 20.0961 21.3563 21.4667C20.0365 22.7865 18.4121 23.1926 16.5847 23.2941C14.7065 23.3956 9.07194 23.3956 7.19375 23.2941C5.36632 23.1926 3.7927 22.7865 2.42213 21.4667C1.10232 20.0961 0.696221 18.5225 0.594698 16.6951C0.493174 14.8169 0.493174 9.18229 0.594698 7.3041C0.696221 5.47667 1.10232 3.85229 2.42213 2.53248C3.7927 1.21267 5.36632 0.806573 7.19375 0.705049C9.07194 0.603525 14.7065 0.603525 16.5847 0.705049C18.4121 0.806573 20.0365 1.21267 21.3563 2.53248ZM11.9141 6.13657C8.66529 6.13657 6.07643 8.77619 6.07643 11.9742C6.07643 15.223 8.66529 17.8118 11.9141 17.8118C15.1121 17.8118 17.7517 15.223 17.7517 11.9742C17.7517 8.77619 15.1121 6.13657 11.9141 6.13657ZM19.3253 5.93352C19.3253 5.17209 18.7162 4.56295 17.9547 4.56295C17.1933 4.56295 16.5841 5.17209 16.5841 5.93352C16.5841 6.69495 17.1933 7.30409 17.9547 7.30409C18.7162 7.30409 19.3253 6.69495 19.3253 5.93352ZM11.9145 15.7813C9.83321 15.7813 8.10731 14.1062 8.10731 11.9742C8.10731 9.89296 9.78245 8.21781 11.9145 8.21781C13.9957 8.21781 15.6708 9.89296 15.6708 11.9742C15.6708 14.1062 13.9957 15.7813 11.9145 15.7813Z" fill="white"/>
</svg>
