<svg xmlns="http://www.w3.org/2000/svg" width="12" height="13" viewBox="0 0 12 13" fill="none">
<path d="M11.1429 0.382812H0.830357C0.375 0.382812 0 0.784598 0 1.26674V11.5257C0 12.0078 0.375 12.3828 0.830357 12.3828H11.1429C11.5982 12.3828 12 12.0078 12 11.5257V1.26674C12 0.784598 11.5982 0.382812 11.1429 0.382812ZM3.61607 10.6685H1.84821V4.96317H3.61607V10.6685ZM2.73214 4.1596C2.14286 4.1596 1.6875 3.70424 1.6875 3.14174C1.6875 2.57924 2.14286 2.0971 2.73214 2.0971C3.29464 2.0971 3.75 2.57924 3.75 3.14174C3.75 3.70424 3.29464 4.1596 2.73214 4.1596ZM10.2857 10.6685H8.49107V7.88281C8.49107 7.23996 8.49107 6.38281 7.58036 6.38281C6.64286 6.38281 6.50893 7.10603 6.50893 7.85603V10.6685H4.74107V4.96317H6.42857V5.73996H6.45536C6.69643 5.2846 7.28571 4.80246 8.14286 4.80246C9.9375 4.80246 10.2857 6.00781 10.2857 7.5346V10.6685Z" fill="white"/>
</svg>
