<svg xmlns="http://www.w3.org/2000/svg" width="24" height="25" viewBox="0 0 24 25" fill="none">
<path d="M10.775 20.5014L9.35 19.1764C7.56667 17.5597 5.97933 15.972 4.588 14.4134C3.196 12.8554 2.5 11.1847 2.5 9.40137C2.5 7.9847 2.97933 6.79703 3.938 5.83837C4.896 4.88037 6.08333 4.40137 7.5 4.40137C8.3 4.40137 9.096 4.5887 9.888 4.96337C10.6793 5.3387 11.3833 5.94303 12 6.77637C12.6167 5.94303 13.321 5.3387 14.113 4.96337C14.9043 4.5887 15.7 4.40137 16.5 4.40137C17.9167 4.40137 19.104 4.88037 20.062 5.83837C21.0207 6.79703 21.5 7.9847 21.5 9.40137C21.5 11.2014 20.7917 12.8887 19.375 14.4634C17.9583 16.0387 16.375 17.618 14.625 19.2014L13.225 20.4764C12.875 20.8097 12.4667 20.9764 12 20.9764C11.5333 20.9764 11.125 20.818 10.775 20.5014ZM11.275 8.30137C10.7417 7.46803 10.175 6.8597 9.575 6.47637C8.975 6.09303 8.28333 5.90137 7.5 5.90137C6.5 5.90137 5.66667 6.2347 5 6.90137C4.33333 7.56803 4 8.40137 4 9.40137C4 10.2014 4.25833 11.0387 4.775 11.9134C5.29167 12.7887 5.94167 13.6597 6.725 14.5264C7.50833 15.393 8.354 16.2387 9.262 17.0634C10.1707 17.8887 11.0167 18.6597 11.8 19.3764C11.85 19.4264 11.9167 19.4514 12 19.4514C12.0833 19.4514 12.15 19.4264 12.2 19.3764C12.9833 18.6597 13.8293 17.8887 14.738 17.0634C15.646 16.2387 16.4917 15.393 17.275 14.5264C18.0583 13.6597 18.7083 12.7887 19.225 11.9134C19.7417 11.0387 20 10.2014 20 9.40137C20 8.40137 19.6667 7.56803 19 6.90137C18.3333 6.2347 17.5 5.90137 16.5 5.90137C15.7167 5.90137 15.025 6.09303 14.425 6.47637C13.825 6.8597 13.2583 7.46803 12.725 8.30137C12.6417 8.41803 12.5333 8.5097 12.4 8.57637C12.2667 8.64303 12.1333 8.67637 12 8.67637C11.8667 8.67637 11.7333 8.64303 11.6 8.57637C11.4667 8.5097 11.3583 8.41803 11.275 8.30137Z" fill="#1C1B1F"/>
</svg>
