<svg xmlns="http://www.w3.org/2000/svg" width="18" height="18" viewBox="0 0 18 18" fill="none">
<mask id="mask0_7167_2107" style="mask-type:alpha" maskUnits="userSpaceOnUse" x="0" y="0" width="18" height="18">
<rect width="18" height="18" fill="#D9D9D9"/>
</mask>
<g mask="url(#mask0_7167_2107)">
<path d="M9.6375 16.125C9.4875 16.125 9.34075 16.0938 9.19725 16.0312C9.05325 15.9688 8.93125 15.8875 8.83125 15.7875L2.23125 9.1875C2.11875 9.075 2.03125 8.95 1.96875 8.8125C1.90625 8.675 1.875 8.525 1.875 8.3625V3C1.875 2.6875 1.9845 2.422 2.2035 2.2035C2.422 1.9845 2.6875 1.875 3 1.875H8.3625C8.5125 1.875 8.6595 1.90625 8.8035 1.96875C8.947 2.03125 9.06875 2.1125 9.16875 2.2125L15.7687 8.8125C15.9937 9.0375 16.1063 9.30925 16.1063 9.62775C16.1063 9.94675 16 10.2125 15.7875 10.425L10.425 15.7875C10.325 15.8875 10.2063 15.9688 10.0688 16.0312C9.93125 16.0938 9.7875 16.125 9.6375 16.125ZM4.875 5.8125C5.1375 5.8125 5.3595 5.72175 5.541 5.54025C5.722 5.35925 5.8125 5.1375 5.8125 4.875C5.8125 4.6125 5.722 4.3905 5.541 4.209C5.3595 4.028 5.1375 3.9375 4.875 3.9375C4.6125 3.9375 4.39075 4.028 4.20975 4.209C4.02825 4.3905 3.9375 4.6125 3.9375 4.875C3.9375 5.1375 4.02825 5.35925 4.20975 5.54025C4.39075 5.72175 4.6125 5.8125 4.875 5.8125Z" fill="white"/>
</g>
</svg>
