<svg xmlns="http://www.w3.org/2000/svg" width="12" height="11" viewBox="0 0 12 11" fill="none">
<path d="M10.7789 2.90057C11.2485 2.54429 11.6712 2.11675 12 1.61796C11.5773 1.80797 11.0841 1.95049 10.591 1.99799C11.1076 1.68921 11.4834 1.21417 11.6712 0.620367C11.2016 0.905392 10.6614 1.11916 10.1213 1.23792C9.65166 0.739127 9.01761 0.454102 8.31311 0.454102C6.95108 0.454102 5.84736 1.57045 5.84736 2.94808C5.84736 3.13809 5.87084 3.32811 5.91781 3.51813C3.87476 3.39937 2.04305 2.40178 0.821918 0.905392C0.610568 1.26167 0.493151 1.68921 0.493151 2.16426C0.493151 3.01933 0.915851 3.7794 1.59687 4.23069C1.19765 4.20694 0.798434 4.11193 0.469667 3.92192V3.94567C0.469667 5.15703 1.31507 6.15462 2.44227 6.39214C2.2544 6.43964 2.01957 6.48715 1.80822 6.48715C1.64384 6.48715 1.50294 6.4634 1.33855 6.43964C1.64384 7.43723 2.55969 8.1498 3.63992 8.17355C2.79452 8.83861 1.73777 9.2424 0.587084 9.2424C0.375734 9.2424 0.187867 9.21865 0 9.19489C1.08023 9.90746 2.37182 10.3112 3.78082 10.3112C8.31311 10.3112 10.7789 6.53465 10.7789 3.2331C10.7789 3.11434 10.7789 3.01933 10.7789 2.90057Z" fill="white"/>
</svg>
